<svg width="38" height="52" viewBox="0 0 38 52" fill="none" xmlns="http://www.w3.org/2000/svg">
<path id="Vector" d="M19.2129 51.0294C19.2129 51.0294 0.443359 27.7345 0.443359 17.8603C0.443359 15.5149 0.928848 13.1924 1.87211 11.0255C2.81536 8.85855 4.19792 6.88964 5.94083 5.23116C7.68374 3.57268 9.75288 2.2571 12.0301 1.35953C14.3073 0.46197 16.748 0 19.2129 0C21.6777 0 24.1185 0.46197 26.3957 1.35953C28.6729 2.2571 30.742 3.57268 32.485 5.23116C34.2279 6.88964 35.6104 8.85855 36.5537 11.0255C37.4969 13.1924 37.9824 15.5149 37.9824 17.8603C37.9824 27.7345 19.2129 51.0294 19.2129 51.0294ZM19.2129 22.9632C20.6352 22.9632 21.9992 22.4256 23.0049 21.4686C24.0106 20.5116 24.5756 19.2137 24.5756 17.8603C24.5756 16.5069 24.0106 15.209 23.0049 14.252C21.9992 13.295 20.6352 12.7574 19.2129 12.7574C17.7906 12.7574 16.4266 13.295 15.4209 14.252C14.4152 15.209 13.8502 16.5069 13.8502 17.8603C13.8502 19.2137 14.4152 20.5116 15.4209 21.4686C16.4266 22.4256 17.7906 22.9632 19.2129 22.9632Z" fill="#FE2A3C"/>
</svg>
